<?xml version="1.0" encoding="utf-8"?>
<svg viewBox="0 53.915 500 403.763" width="500" height="403.763" xmlns="http://www.w3.org/2000/svg">
  <rect y="53.915" width="500" height="88.319" style="fill: rgb(255, 255, 255);"/>
  <rect y="211.268" width="500" height="88.319" style="fill: rgb(255, 255, 255);"/>
  <rect y="369.359" width="500" height="88.319" style="fill: rgb(255, 255, 255);"/>
  <g transform="matrix(4.889487, 0, 0, 4.889487, 284.065637, 229.556254)">
    <path d="M0 0h24v24H0V0zm13.97 21.49c-.63.23-1.29.4-1.97.51.68-.12 1.33-.29 1.97-.51zM12 22c-.68-.12-1.33-.29-1.97-.51.64.22 1.29.39 1.97.51z" fill="none"/>
    <path d="M8.55 12c-1.07-.71-2.25-1.27-3.53-1.61 1.28.34 2.46.9 3.53 1.61zm10.43-1.61c-1.29.34-2.49.91-3.57 1.64 1.08-.73 2.28-1.3 3.57-1.64z"/>
    <path d="M15.49 9.63c-.18-2.79-1.31-5.51-3.43-7.63-2.14 2.14-3.32 4.86-3.55 7.63 1.28.68 2.46 1.56 3.49 2.63 1.03-1.06 2.21-1.94 3.49-2.63zm-6.5 2.65c-.14-.1-.3-.19-.45-.29.15.11.31.19.45.29zm6.42-.25c-.13.09-.27.16-.4.26.13-.1.27-.17.4-.26zM12 15.45C9.85 12.17 6.18 10 2 10c0 5.32 3.36 9.82 8.03 11.49.63.23 1.29.4 1.97.51.68-.12 1.33-.29 1.97-.51C18.64 19.82 22 15.32 22 10c-4.18 0-7.85 2.17-10 5.45z"/>
  </g>
  <g transform="matrix(4.889487, 0, 0, 4.889487, 317.456761, 93.125974)">
    <g>
      <path d="M18,6h-2c0-2.21-1.79-4-4-4S8,3.79,8,6H6C4.9,6,4,6.9,4,8v12c0,1.1,0.9,2,2,2h12c1.1,0,2-0.9,2-2V8C20,6.9,19.1,6,18,6z M10,10c0,0.55-0.45,1-1,1s-1-0.45-1-1V8h2V10z M12,4c1.1,0,2,0.9,2,2h-4C10,4.9,10.9,4,12,4z M16,10c0,0.55-0.45,1-1,1 s-1-0.45-1-1V8h2V10z"/>
    </g>
  </g>
  <g transform="matrix(4.889487, 0, 0, 4.889487, 177.603839, 129.369299)">
    <path d="M11 9H9V2H7v7H5V2H3v7c0 2.12 1.66 3.84 3.75 3.97V22h2.5v-9.03C11.34 12.84 13 11.12 13 9V2h-2v7zm5-3v8h2.5v8H21V2c-2.76 0-5 2.24-5 4z"/>
  </g>
  <g transform="matrix(4.889487, 0, 0, 4.889487, 53.750407, 176.838073)">
    <path d="M13 3h-2v10h2V3zm4.83 2.17l-1.42 1.42C17.99 7.86 19 9.81 19 12c0 3.87-3.13 7-7 7s-7-3.13-7-7c0-2.19 1.01-4.14 2.58-5.42L6.17 5.17C4.23 6.82 3 9.26 3 12c0 4.97 4.03 9 9 9s9-4.03 9-9c0-2.74-1.23-5.18-3.17-6.83z"/>
  </g>
  <g transform="matrix(4.889487, 0, 0, 4.889487, 30.919217, 66.07081)">
    <path d="M12 2C6.48 2 2 6.48 2 12s4.48 10 10 10 10-4.48 10-10S17.52 2 12 2zm-2 14.5v-9l6 4.5-6 4.5z"/>
  </g>
  <g transform="matrix(4.889487, 0, 0, 4.889487, 51.047607, 283.958593)">
    <circle cx="12" cy="12" r="3.2"/>
    <path d="M9 2L7.17 4H4c-1.1 0-2 .9-2 2v12c0 1.1.9 2 2 2h16c1.1 0 2-.9 2-2V6c0-1.1-.9-2-2-2h-3.17L15 2H9zm3 15c-2.76 0-5-2.24-5-5s2.24-5 5-5 5 2.24 5 5-2.24 5-5 5z"/>
  </g>
  <g transform="matrix(4.889487, 0, 0, 4.889487, 380.836741, 185.28602)">
    <path d="M18 10.48l4-3.98v11l-4-3.98V18c0 1.1-.9 2-2 2H4c-1.1 0-2-.9-2-2V6c0-1.1.9-2 2-2h12c1.1 0 2 .9 2 2v4.48zm-2-.79V6H4v12h12V9.69zM10 12c-1.1 0-2-.9-2-2s.9-2 2-2 2 .9 2 2-.9 2-2 2zm0 1c1.34 0 4 .67 4 2v1H6v-1c0-1.33 2.66-2 4-2z"/>
  </g>
  <g transform="matrix(4.889487, 0, 0, 4.889487, 227.75504, 35.728824)">
    <g/>
    <g>
      <g>
        <circle cx="10" cy="8" r="4"/>
        <path d="M10.67,13.02C10.45,13.01,10.23,13,10,13c-2.42,0-4.68,0.67-6.61,1.82C2.51,15.34,2,16.32,2,17.35V20h9.26 C10.47,18.87,10,17.49,10,16C10,14.93,10.25,13.93,10.67,13.02z"/>
        <path d="M20.75,16c0-0.22-0.03-0.42-0.06-0.63l1.14-1.01l-1-1.73l-1.45,0.49c-0.32-0.27-0.68-0.48-1.08-0.63L18,11h-2l-0.3,1.49 c-0.4,0.15-0.76,0.36-1.08,0.63l-1.45-0.49l-1,1.73l1.14,1.01c-0.03,0.21-0.06,0.41-0.06,0.63s0.03,0.42,0.06,0.63l-1.14,1.01 l1,1.73l1.45-0.49c0.32,0.27,0.68,0.48,1.08,0.63L16,21h2l0.3-1.49c0.4-0.15,0.76-0.36,1.08-0.63l1.45,0.49l1-1.73l-1.14-1.01 C20.72,16.42,20.75,16.22,20.75,16z M17,18c-1.1,0-2-0.9-2-2s0.9-2,2-2s2,0.9,2,2S18.1,18,17,18z"/>
      </g>
    </g>
  </g>
  <g transform="matrix(4.889487, 0, 0, 4.889487, 165.312211, 252.917139)">
    <path d="M12 22c4.97 0 9-4.03 9-9-4.97 0-9 4.03-9 9zM5.6 10.25c0 1.38 1.12 2.5 2.5 2.5.53 0 1.01-.16 1.42-.44l-.02.19c0 1.38 1.12 2.5 2.5 2.5s2.5-1.12 2.5-2.5l-.02-.19c.4.28.89.44 1.42.44 1.38 0 2.5-1.12 2.5-2.5 0-1-.59-1.85-1.43-2.25.84-.4 1.43-1.25 1.43-2.25 0-1.38-1.12-2.5-2.5-2.5-.53 0-1.01.16-1.42.44l.02-.19C14.5 2.12 13.38 1 12 1S9.5 2.12 9.5 3.5l.02.19c-.4-.28-.89-.44-1.42-.44-1.38 0-2.5 1.12-2.5 2.5 0 1 .59 1.85 1.43 2.25-.84.4-1.43 1.25-1.43 2.25zM12 5.5c1.38 0 2.5 1.12 2.5 2.5s-1.12 2.5-2.5 2.5S9.5 9.38 9.5 8s1.12-2.5 2.5-2.5zM3 13c0 4.97 4.03 9 9 9 0-4.97-4.03-9-9-9z"/>
  </g>
  <g transform="matrix(4.889487, 0, 0, 4.889487, 376.70105, 319.040665)">
    <path d="M19 5v14H5V5h14m1.1-2H3.9c-.5 0-.9.4-.9.9v16.2c0 .4.4.9.9.9h16.2c.4 0 .9-.5.9-.9V3.9c0-.5-.5-.9-.9-.9zM11 7h6v2h-6V7zm0 4h6v2h-6v-2zm0 4h6v2h-6zM7 7h2v2H7zm0 4h2v2H7zm0 4h2v2H7z"/>
  </g>
  <g transform="matrix(4.889487, 0, 0, 4.889487, 163.971771, 343.182495)">
    <path d="M3 13h2v-2H3v2zm0 4h2v-2H3v2zm0-8h2V7H3v2zm4 4h14v-2H7v2zm0 4h14v-2H7v2zM7 7v2h14V7H7z"/>
  </g>
  <g transform="matrix(4.889487, 0, 0, 4.889487, -44.204948, 338.299805)">
    <path d="M12,7c-2.76,0-5,2.24-5,5s2.24,5,5,5s5-2.24,5-5S14.76,7,12,7L12,7z M2,13l2,0c0.55,0,1-0.45,1-1s-0.45-1-1-1l-2,0 c-0.55,0-1,0.45-1,1S1.45,13,2,13z M20,13l2,0c0.55,0,1-0.45,1-1s-0.45-1-1-1l-2,0c-0.55,0-1,0.45-1,1S19.45,13,20,13z M11,2v2 c0,0.55,0.45,1,1,1s1-0.45,1-1V2c0-0.55-0.45-1-1-1S11,1.45,11,2z M11,20v2c0,0.55,0.45,1,1,1s1-0.45,1-1v-2c0-0.55-0.45-1-1-1 C11.45,19,11,19.45,11,20z M5.99,4.58c-0.39-0.39-1.03-0.39-1.41,0c-0.39,0.39-0.39,1.03,0,1.41l1.06,1.06 c0.39,0.39,1.03,0.39,1.41,0s0.39-1.03,0-1.41L5.99,4.58z M18.36,16.95c-0.39-0.39-1.03-0.39-1.41,0c-0.39,0.39-0.39,1.03,0,1.41 l1.06,1.06c0.39,0.39,1.03,0.39,1.41,0c0.39-0.39,0.39-1.03,0-1.41L18.36,16.95z M19.42,5.99c0.39-0.39,0.39-1.03,0-1.41 c-0.39-0.39-1.03-0.39-1.41,0l-1.06,1.06c-0.39,0.39-0.39,1.03,0,1.41s1.03,0.39,1.41,0L19.42,5.99z M7.05,18.36 c0.39-0.39,0.39-1.03,0-1.41c-0.39-0.39-1.03-0.39-1.41,0l-1.06,1.06c-0.39,0.39-0.39,1.03,0,1.41s1.03,0.39,1.41,0L7.05,18.36z"/>
  </g>
</svg>